Coordinates
version=1
nRows=17
nColumns=40
inDegrees=yes

Units are S.I. units (second, meters, Newtons, ...)
Angles are in degrees.

endheader
time	pelvis_tilt	pelvis_list	pelvis_rotation	pelvis_tx	pelvis_ty	pelvis_tz	hip_flexion_r	hip_adduction_r	hip_rotation_r	knee_angle_r	knee_angle_r_beta	ankle_angle_r	subtalar_angle_r	mtp_angle_r	hip_flexion_l	hip_adduction_l	hip_rotation_l	knee_angle_l	knee_angle_l_beta	ankle_angle_l	subtalar_angle_l	mtp_angle_l	lumbar_extension	lumbar_bending	lumbar_rotation	arm_flex_r	arm_add_r	arm_rot_r	elbow_flex_r	pro_sup_r	wrist_flex_r	wrist_dev_r	arm_flex_l	arm_add_l	arm_rot_l	elbow_flex_l	pro_sup_l	wrist_flex_l	wrist_dev_l
     55.33000000	     -6.15163505	     -5.30522185	      0.55709343	      0.87807401	      0.91988715	      0.46786136	     23.01588695	      1.31452964	    -11.34503502	     20.34699951	     20.34699951	      5.53034121	     -4.50173400	     -3.33338818	      7.81754240	     -8.63308034	     -3.74743561	     35.60892309	     35.60892309	     16.11464482	    -12.49287207	     -7.20713421	     -9.50059630	      7.35985246	     -0.02443713	      1.52059045	    -11.78427798	     -2.77486911	     34.56468122	     45.58066642	      0.00000000	      0.00000000	     12.80225408	    -11.54280423	     -7.33681322	     72.04424984	     46.78209601	      0.00000000	      0.00000000
     55.34228571	     -6.01835191	     -5.45562061	      0.82815845	      0.87883149	      0.92039045	      0.47009857	     22.35308544	      1.58760445	    -11.55878022	     20.28041660	     20.28041660	      5.87330542	     -4.58842412	     -3.81468809	      9.38329975	     -9.17702178	     -3.15793637	     39.00733407	     39.00733407	     12.62420760	    -14.87569995	    -11.66604927	     -9.38994752	      7.50925770	      0.30255571	      2.54576654	    -12.36272600	     -1.77684932	     36.86797677	     45.46291850	      0.00000000	      0.00000000	     12.44402336	    -10.89953026	     -6.71161790	     68.03963301	     46.75055711	      0.00000000	      0.00000000
     55.35457143	     -5.81693795	     -5.67537075	      1.08520230	      0.87949256	      0.92084945	      0.47245062	     21.63220485	      1.94016070	    -11.83003317	     20.24702780	     20.24702780	      6.33589817	     -4.54183441	     -3.98021761	     11.20488145	     -9.83320281	     -2.56771122	     43.06287554	     43.06287554	     10.67551708	    -15.93481292	    -11.84408288	     -9.44015266	      7.67240910	      0.23005643	      4.34206243	    -12.55376715	     -1.81367195	     37.85769018	     45.44177438	      0.00000000	      0.00000000	     11.06189722	    -10.61858103	     -6.43090344	     66.45588192	     46.70439204	      0.00000000	      0.00000000
     55.36685714	     -5.60843011	     -5.87654010	      1.27747165	      0.87997277	      0.92121762	      0.47489513	     20.95754446	      2.28969358	    -12.07338625	     20.29208473	     20.29208473	      6.78767177	     -4.47452301	     -4.14978612	     13.08829985	    -10.45502590	     -1.97917132	     47.09862665	     47.09862665	      8.48448606	    -16.87727391	    -11.77662601	     -9.52747906	      7.77746762	      0.22761611	      6.25836851	    -12.77536763	     -1.78811303	     38.99256513	     45.41168947	      0.00000000	      0.00000000	      9.85322385	    -10.30959271	     -6.22383063	     64.53380974	     46.65847557	      0.00000000	      0.00000000
     55.37914286	     -5.47378494	     -5.91964716	      1.44905487	      0.88024424	      0.92148650	      0.47725046	     20.40491774	      2.45360234	    -12.28219453	     20.40566230	     20.40566230	      7.28170339	     -4.30586309	     -4.21057071	     15.10360601	    -10.82447055	     -1.33157586	     51.07047668	     51.07047668	      6.54878474	    -17.48359664	    -10.41294818	     -9.46001855	      7.71984248	      0.55670563	      7.52279688	    -13.37586457	     -0.72611757	     41.39657983	     45.28540433	      0.00000000	      0.00000000	      9.82783188	     -9.59412525	     -6.37929253	     59.47236921	     46.62783541	      0.00000000	      0.00000000
     55.39142857	     -5.32791015	     -6.11368047	      1.61038920	      0.88037374	      0.92157829	      0.47973272	     19.84896694	      2.80376475	    -12.47424054	     20.49317561	     20.49317561	      7.71586981	     -4.24586090	     -4.31459426	     17.15337374	    -11.36177840	     -0.64201344	     54.87962829	     54.87962829	      4.43833765	    -17.88853501	     -9.52775934	     -9.50308615	      7.74351899	      0.57220441	      9.34762894	    -13.62229498	     -0.71333436	     42.75124550	     45.24853550	      0.00000000	      0.00000000	      8.51617614	     -9.38305770	     -6.16696155	     57.82127703	     46.58376393	      0.00000000	      0.00000000
     55.40371429	     -5.18480303	     -6.09299192	      1.71013820	      0.88026166	      0.92173892	      0.48195989	     19.38957809	      2.88783640	    -12.62074426	     20.76392528	     20.76392528	      8.34614356	     -3.99969018	     -4.06306002	     19.27393756	    -11.42775184	      0.19179637	     58.67947181	     58.67947181	      3.95444520	    -17.69126086	     -4.29638998	     -9.57435605	      7.59278998	      1.10608324	     10.39293260	    -14.53550730	      0.52556568	     46.03123708	     45.09711785	      0.00000000	      0.00000000	      8.53082435	     -8.72271744	     -6.27091518	     53.22263378	     46.55894282	      0.00000000	      0.00000000
     55.41600000	     -5.07234110	     -6.18739042	      1.83757614	      0.88011672	      0.92180907	      0.48429560	     18.90644071	      3.13027171	    -12.73943605	     20.88728045	     20.88728045	      8.77538347	     -3.97012384	     -4.14674815	     21.22355885	    -11.71806147	      0.88627039	     61.73345815	     61.73345815	      2.16018331	    -17.85034999	     -3.40578700	     -9.64967009	      7.51180157	      1.04621084	     12.37501345	    -14.66041369	      0.40903732	     47.42424462	     45.06706463	      0.00000000	      0.00000000	      7.11694287	     -8.65860300	     -6.11932088	     51.70164545	     46.51824309	      0.00000000	      0.00000000
     55.42828571	     -4.97919532	     -6.12049698	      1.93634355	      0.87976559	      0.92196422	      0.48629247	     18.50180448	      3.15329375	    -12.87165947	     21.12389545	     21.12389545	      9.35416608	     -3.72632866	     -3.77589071	     23.22306349	    -11.61542904	      1.64716364	     64.64237302	     64.64237302	      2.15979941	    -17.52704774	      1.44260878	     -9.71126171	      7.22332542	      1.38056594	     13.61847411	    -15.45307166	      1.31579700	     50.63961310	     44.94527169	      0.00000000	      0.00000000	      6.99118713	     -8.15258518	     -6.36977003	     47.27709043	     46.50379287	      0.00000000	      0.00000000
     55.44057143	     -4.91374423	     -6.12992658	      2.05543459	      0.87937239	      0.92210698	      0.48832540	     18.05810786	      3.29543265	    -12.94662868	     21.18873241	     21.18873241	      9.75561275	     -3.69400464	     -3.77571429	     25.02905441	    -11.73247225	      2.17458928	     66.77718207	     66.77718207	      1.17370803	    -17.43226941	      2.25799080	     -9.78119018	      7.01915862	      1.08103636	     15.69552486	    -15.39607026	      1.17302202	     52.47060829	     44.90511428	      0.00000000	      0.00000000	      5.58965382	     -8.22138177	     -6.30438630	     45.48630014	     46.46763815	      0.00000000	      0.00000000
     55.45285714	     -4.83805454	     -6.08398279	      2.17207910	      0.87888022	      0.92243638	      0.49011521	     17.59053425	      3.35304677	    -13.05154457	     21.24306104	     21.24306104	     10.27289009	     -3.45869782	     -3.39557072	     26.75852995	    -11.66832123	      2.71212971	     68.51183037	     68.51183037	      1.37751840	    -17.07156763	      5.11130224	     -9.90330612	      6.77861104	      1.55340198	     16.86605355	    -16.20547818	      1.73652891	     55.73071981	     44.80900497	      0.00000000	      0.00000000	      5.45780852	     -7.76538025	     -6.61685223	     41.59308905	     46.46549542	      0.00000000	      0.00000000
     55.46514286	     -4.76721929	     -6.01265527	      2.31274999	      0.87836507	      0.92288888	      0.49177132	     17.04983227	      3.40795893	    -13.10207095	     21.12539968	     21.12539968	     10.59567298	     -3.37443240	     -3.32029955	     28.27849292	    -11.63610012	      3.04781511	     69.51846465	     69.51846465	      1.13462109	    -16.98759895	      5.61482030	    -10.03162924	      6.50500666	      1.31199637	     18.85780044	    -16.14755099	      1.55112052	     57.80762627	     44.76893709	      0.00000000	      0.00000000	      4.23286012	     -7.79679791	     -6.62744220	     39.71529391	     46.43686915	      0.00000000	      0.00000000
     55.47742857	     -4.77220759	     -6.02602052	      2.51759059	      0.87772090	      0.92327736	      0.49321040	     16.52455336	      3.54033654	    -13.24401151	     20.85820337	     20.85820337	     10.87165310	     -3.26503068	     -3.25120293	     29.82246121	    -11.63059158	      3.40869810	     70.02063328	     70.02063328	      1.16207680	    -17.04184264	      5.93348286	    -10.09196873	      6.32944068	      1.05402820	     20.78449430	    -16.10224361	      1.43842172	     59.84895618	     44.72107979	      0.00000000	      0.00000000	      3.06429147	     -7.78709160	     -6.60355947	     37.91790758	     46.40779454	      0.00000000	      0.00000000
     55.48971429	     -4.78902946	     -5.91532614	      2.63614508	      0.87703094	      0.92382458	      0.49449785	     16.01275180	      3.55525270	    -13.24190183	     20.59620653	     20.59620653	     11.12039062	     -3.20041136	     -3.23919726	     31.15039751	    -11.57705566	      3.43333629	     69.85822947	     69.85822947	      1.34269481	    -17.22080930	      6.00545326	    -10.15768865	      5.98976275	      1.43503597	     22.67454751	    -16.53474386	      1.18080509	     60.99699174	     44.70295153	      0.00000000	      0.00000000	      1.99621399	     -7.64057739	     -6.57228070	     37.02086989	     46.38539826	      0.00000000	      0.00000000
     55.50200000	     -4.80296679	     -5.91280459	      2.91032972	      0.87629168	      0.92443347	      0.49548440	     15.38245174	      3.63924077	    -13.54500154	     20.11882944	     20.11882944	     11.40615130	     -2.82968197	     -2.95004965	     32.46577878	    -11.48578134	      3.64881164	     69.27307986	     69.27307986	      2.24098291	    -17.36976815	      7.62665213	    -10.30181383	      5.91542657	      1.55110376	     23.40586637	    -17.21226050	      1.76684237	     66.31562209	     44.54582917	      0.00000000	      0.00000000	      2.26220882	     -7.38207018	     -6.69004487	     32.31165187	     46.37993342	      0.00000000	      0.00000000
     55.51428571	     -4.85035413	     -5.88337971	      3.13781348	      0.87552395	      0.92506348	      0.49637594	     14.74683807	      3.74606134	    -13.63705589	     19.52948573	     19.52948573	     11.52655195	     -2.73970232	     -2.82257337	     33.57247075	    -11.45050474	      3.61368195	     67.99428042	     67.99428042	      2.72256479	    -17.80040836	      7.87427307	    -10.38101385	      5.75223613	      1.34789579	     25.39899588	    -16.98642265	      1.35474959	     68.04509823	     44.51875994	      0.00000000	      0.00000000	      1.09668879	     -7.39044697	     -6.65218873	     31.29436477	     46.35321764	      0.00000000	      0.00000000
     55.52657143	     -4.90664271	     -5.87342185	      3.40536709	      0.87476207	      0.92566332	      0.49707718	     14.09105520	      3.85651692	    -13.82077862	     18.89351790	     18.89351790	     11.66154539	     -2.56249130	     -2.72124775	     34.54686723	    -11.42615977	      3.51764107	     66.21438266	     66.21438266	      3.42781220	    -18.12077991	      8.48254537	    -10.47129905	      5.62632290	      1.05113801	     27.11919088	    -16.79106785	      1.07832836	     70.51258818	     44.46670054	      0.00000000	      0.00000000	      0.02803937	     -7.39485034	     -6.58157871	     29.93572186	     46.32225830	      0.00000000	      0.00000000
